<svg version="1.2" xmlns="http://www.w3.org/2000/svg" viewBox="0 0 798 28" width="798" height="28">
	<title>rip-svg</title>
	<style>
		.s0 { fill: #ffffff } 
	</style>
	<path id="Layer" fill-rule="evenodd" class="s0" d="m-1-492c266.6 0 533.4 0 800 0 0 13 0 501.3 0 514.3-2-0.3-3.2-1.5-5.5-1-2.1 0.5-4.4 3.3-8 2-1.4-0.5-0.9-1.5-3-2-4.9 6.4-17.8 5.4-26.5 3.5-5.3-1.2-7.8 2.7-12 1.5-2.1-0.6-2.8-3.3-5-2.5-2.8 0.7-3 2.4-7 2.5-0.4-0.5-4.1-3.9-4.5-4-2.6-0.9-6.6 1-8.5-0.5-0.8-0.6-2-3.2-2.5-4-3.3 2-12.9 4.7-19 3-2.3-0.6-3.5-4-7-3q-0.8 0.8-1.5 1.5-5.5 0-11 0c-2.4 0.7-6.9 2.4-9 3q-3.8-0.5-7.5-1c-4 1.3-3.8 4.9-11 5-2.2-3-4.1-1.4-8.5-2.5-0.2-0.1-1-1.1-1.5-1-1.3 0.2-2 2.1-4.5 1.5-2.5-0.6-4-3.4-6-4-2.5-0.7-6 1.2-8.5-0.5-1.3-0.8-2.5-3.3-4-4q-2.5-0.3-5-0.5-1-1-2-2c-2.1-0.6-2.4 1.1-3.5 1.5q-3.8 0-7.5 0c-1.2 0.4-2.3 1.9-4.5 1.5-2.5-0.5-3.4-2.8-5-3.5q-3.8 0.3-7.5 0.5c-0.7-0.2-2.5-1.4-3-1.5-2.5-0.6-6.5 1.5-8 2q-3.5 0-7 0c-3.4 1-8.1 1.1-11.5 2q-4.5 0.3-9 0.5c-2.1 0.8-5.3 2.9-7.5 3.5-4.6 1.2-14.1-4.5-17.5-4-8.6 1.3-15.2 5.7-23 7-4.6 0.8-8.7-2.7-14-1-2.8 0.9-3.7 2.4-8 2.5-0.1-0.1-14.3-8.9-14.5-9-2.6-0.8-9.6 1.1-13.5 0.5-1.7-0.3-1.2-2-3.5-1.5q-0.8 0.8-1.5 1.5-6 0-12 0-0.8 1-1.5 2c-2.6 1.6-6.9 0.8-9.5 0q-4 0-8 0c-2.8-0.9-13.7-4.7-16-1-1.2 1.5-0.9 3.4-1.5 4.5-0.6 0.4-0.8 0.4-2 0.5-2.2-2.1-7.9 1.8-10 1-1.5-0.6-1.5-1.9-4.5-2q0 0.5 0 1c0.4 0.5 0.3 0.5 0.5 1.5-1 0.4-2.3 0.5-4 0.5-0.6-0.7-1-1.1-1.5-2-3.7 2.9-16.4 7.4-24 5-1.6-0.5-1.7-2.7-4.5-2q-0.5 0.5-1 1-6.3-0.3-12.5-0.5c-1.5 0.6-5.6 3.5-9 2.5q-0.8-0.8-1.5-1.5-3.8-0.3-7.5-0.5-0.8-0.8-1.5-1.5c-2.7-1-5.2 0-7.5-1-1.6-0.7-2.6-2.5-4.5-3q-6.3-0.3-12.5-0.5c-1-0.3-1.9-1.7-2.5-2q-4.3 0-8.5 0c-1.5 2-6.6 5.2-9 6q-7.5-0.3-15-0.5-0.5 0.8-1 1.5c-5.9 2.6-14.5-3.3-18-5-2.5-1.2-3.7 1.5-6 1-3.3-0.8-7.4-3.7-11.5-4-3.6 5.1-8.6 0.2-13.5-0.5-4.9-0.7-8.3 4.8-14 2.5-2.6-1-6.4-4.4-11.5-3-3.2 0.9-6.3 4.1-9.5 5-2.9 0.8-5.9-1-8-1.5-5.6-1.3-8.4 2.6-13 1.5-2-0.5-3.3-2.3-5-3-2.6-1-4.6-0.7-7-2q-1-1-2-2-6 0-12 0c-0.8-0.3-1.7-1.7-2.5-2-2.3-0.8-15.8-0.7-17.5 0-1.3 0.5-3.7 2.5-5.5 3-2.6 0.7-3.5-0.8-6-1-1 1.6-2.3 2.7-3.5 4-5.5 0.1-10.7-0.6-15-1-1.1 1.7-1.7 2.4-4.5 2.5-1-1.1-1.5-1.3-3.5-1.5-1 1.4-1.5 1.5-4 1.5-2-2-3.6-0.5-7-1.5-1.9-0.5-7.2-5-10-4-0.7 0.2-2 1.9-3 2-2.5 0.4-3.8-3.6-7-2-3.9 1.9-6.7 5.7-12 6-6.7-6-12.8 1-18 2 0-12.8 0-501 0-513.8z"/>
</svg>